<?xml version="1.0" standalone="no"?>
<!DOCTYPE svg PUBLIC "-//W3C//DTD SVG 20010904//EN"
 "http://www.w3.org/TR/2001/REC-SVG-20010904/DTD/svg10.dtd">
<svg version="1.0" xmlns="http://www.w3.org/2000/svg"
 width="1702.000000pt" height="291.000000pt" viewBox="0 0 1702.000000 291.000000"
 preserveAspectRatio="xMidYMid meet">

<g transform="translate(0.000000,291.000000) scale(0.100000,-0.100000)"
fill="#f55142" stroke="none">
<path d="M11027 2812 c-42 -43 -77 -84 -77 -92 0 -7 -53 -84 -117 -169 -127
-168 -171 -221 -183 -221 -4 0 -43 47 -86 104 -59 78 -86 106 -107 110 -25 5
-27 8 -17 27 10 18 1 34 -73 132 -47 62 -99 127 -114 146 l-29 34 -44 -32
c-23 -17 -50 -31 -59 -31 -9 -1 -51 -33 -94 -73 l-77 -72 37 -61 c21 -34 71
-90 111 -126 40 -36 135 -136 211 -223 l139 -159 -106 -120 c-59 -66 -171
-186 -249 -266 l-142 -146 9 -128 9 -129 43 -36 c87 -74 297 -279 366 -356
l70 -81 -129 -137 c-90 -96 -129 -144 -129 -160 0 -18 -10 -28 -41 -43 -23
-10 -76 -52 -118 -94 -68 -67 -78 -82 -92 -136 l-16 -62 126 -86 126 -86 54
57 c49 53 345 427 382 483 9 14 19 23 21 20 2 -3 53 -63 113 -133 64 -76 122
-135 142 -145 26 -12 33 -22 33 -44 0 -31 144 -235 162 -230 6 2 30 16 54 33
24 16 52 33 62 37 16 6 80 76 140 154 12 15 9 23 -16 60 -17 24 -134 150 -262
281 l-232 237 117 130 c75 84 115 136 113 148 -3 12 10 24 43 42 26 14 88 65
139 113 l91 89 -7 128 -7 129 -46 33 c-59 42 -194 172 -334 321 l-110 118 101
95 c72 67 111 114 134 157 24 45 40 63 60 68 48 13 114 77 179 175 53 81 60
97 48 108 -17 15 -220 170 -235 179 -6 3 -45 -29 -87 -71z m-364 -977 c18 -23
36 -35 52 -35 19 0 25 -5 25 -23 0 -14 18 -40 46 -67 25 -25 81 -84 124 -131
l79 -85 -80 -100 c-97 -120 -259 -296 -268 -292 -8 4 -242 265 -294 329 -20
25 -37 51 -37 56 0 6 44 60 98 121 53 60 124 144 157 185 33 42 62 76 65 76 3
1 18 -15 33 -34z"/>
<path d="M1996 2708 l-98 -162 16 -32 c15 -32 15 -33 -12 -39 -22 -5 -40 -29
-100 -138 -70 -127 -108 -184 -116 -176 -17 17 -206 360 -282 512 l-95 189
-37 -6 c-44 -7 -219 -26 -246 -26 -18 0 -19 -7 -13 -126 4 -99 9 -129 22 -144
13 -15 15 -26 9 -47 -5 -15 -6 -100 -4 -188 3 -88 5 -251 5 -363 0 -111 2
-202 5 -202 3 0 16 -9 30 -20 l25 -19 -31 -33 -31 -33 -12 -588 c-11 -549 -11
-591 5 -642 17 -54 17 -57 -5 -125 -20 -63 -21 -76 -10 -132 6 -35 15 -66 19
-71 3 -4 84 -4 180 -1 l173 7 -8 381 c-4 210 -12 488 -19 618 -8 184 -8 243 1
265 9 20 12 133 13 400 0 204 4 374 8 377 5 3 52 -82 105 -189 95 -192 97
-194 133 -201 37 -7 165 11 195 27 9 5 20 21 23 36 4 16 25 65 47 110 21 45
39 89 39 97 0 8 21 45 48 81 l47 66 8 -53 c4 -29 2 -227 -4 -440 -7 -213 -10
-439 -7 -504 5 -107 7 -118 28 -134 l23 -17 -21 -31 c-21 -28 -22 -42 -22
-209 0 -98 -7 -248 -16 -333 -10 -107 -13 -178 -7 -230 l8 -74 45 -27 45 -27
147 7 c81 3 149 9 152 12 6 5 -25 364 -41 492 -5 32 -4 120 1 195 6 90 4 335
-6 718 -13 520 -17 584 -33 611 -17 28 -16 31 4 70 18 35 22 71 31 250 5 114
12 238 15 275 l5 68 -42 21 c-33 17 -203 59 -238 59 -4 0 -51 -73 -104 -162z"/>
<path d="M3100 2854 c-19 -8 -71 -20 -115 -25 -44 -5 -91 -12 -104 -15 l-23
-5 7 -127 c4 -70 13 -152 20 -183 9 -39 10 -72 3 -110 -5 -30 -9 -197 -8 -373
1 -301 2 -319 20 -335 19 -16 19 -17 -6 -76 l-25 -60 1 -460 c0 -253 -2 -577
-6 -721 l-7 -261 63 -6 c35 -4 121 -7 191 -7 l129 0 0 96 c0 87 -2 97 -22 114
l-23 18 25 20 24 19 -18 194 c-13 134 -20 319 -24 601 -5 421 0 538 22 538 7
0 66 -35 132 -77 65 -42 171 -107 234 -144 l114 -68 39 70 c45 83 112 228 106
233 -15 13 -201 117 -232 130 -35 14 -41 14 -60 1 -20 -14 -22 -13 -37 17 -11
25 -37 45 -106 83 -50 27 -113 63 -141 79 l-50 30 -6 65 c-2 36 -2 120 2 186
l6 120 76 -75 c42 -41 85 -87 95 -101 19 -26 24 -27 138 -30 l118 -4 86 125
c47 69 122 175 167 235 44 61 84 115 88 122 10 17 -98 89 -196 130 -43 18 -84
33 -90 33 -7 0 -36 -44 -66 -98 -29 -53 -72 -121 -93 -149 -36 -47 -42 -51
-62 -41 -11 6 -89 78 -172 160 -83 81 -158 148 -165 148 -8 -1 -30 -8 -49 -16z"/>
<path d="M9249 2707 c-93 -156 -96 -163 -83 -189 18 -35 18 -35 -10 -42 -19
-5 -39 -32 -82 -109 -75 -136 -123 -209 -133 -203 -16 10 -206 352 -289 521
-46 94 -85 171 -87 173 -2 2 -36 -1 -77 -7 -40 -5 -107 -13 -148 -16 l-75 -6
5 -122 c4 -91 10 -130 23 -154 16 -31 16 -35 2 -64 -14 -26 -15 -49 -6 -180 6
-83 11 -239 11 -347 l0 -196 28 -22 27 -22 -27 -29 -28 -29 -10 -390 c-14
-573 -13 -813 4 -863 14 -38 13 -45 -9 -110 -22 -66 -22 -72 -9 -137 8 -37 16
-69 18 -71 2 -2 81 -1 175 3 l171 7 0 295 c0 162 -7 438 -16 614 -12 234 -13
327 -5 350 7 20 11 151 12 357 1 179 4 352 8 384 l6 58 100 -200 c114 -231
107 -224 239 -201 93 16 100 21 121 77 10 26 31 74 46 105 16 32 29 64 29 73
0 9 22 47 49 86 l49 70 8 -57 c3 -31 3 -198 -2 -373 -5 -174 -9 -396 -8 -494
1 -170 2 -179 24 -202 l22 -24 -21 -34 c-20 -32 -21 -48 -21 -243 -1 -115 -6
-261 -13 -324 -7 -63 -11 -150 -9 -192 l4 -77 46 -30 47 -29 147 7 c81 3 150
10 154 14 8 7 -7 193 -32 422 -12 107 -14 166 -7 250 6 74 5 311 -5 715 -14
552 -16 607 -33 628 -17 22 -17 25 6 75 20 45 24 74 29 222 4 94 9 215 12 270
l6 100 -54 22 c-42 18 -196 53 -227 53 -3 0 -49 -73 -102 -163z"/>
<path d="M4475 2850 c-55 -4 -122 -8 -149 -9 l-48 -1 5 -127 c2 -71 10 -257
17 -415 10 -216 10 -326 2 -440 -7 -99 -9 -367 -5 -758 5 -574 6 -606 24 -632
10 -15 19 -30 19 -32 0 -3 -13 -27 -29 -53 -25 -41 -30 -62 -36 -149 l-7 -101
52 -21 c61 -26 151 -29 274 -10 l79 12 -7 155 c-10 263 -26 402 -48 439 -20
32 -20 32 1 32 20 0 20 4 16 477 -4 513 -10 594 -45 663 l-22 44 28 25 29 25
-3 189 -2 189 76 -68 c41 -38 110 -110 152 -161 42 -51 83 -93 91 -92 64 3
186 119 214 203 10 27 17 51 17 52 0 2 -74 66 -165 144 -126 108 -195 176
-287 286 -67 79 -127 143 -132 142 -6 -1 -56 -5 -111 -8z"/>
<path d="M5515 2834 c-60 -13 -120 -26 -133 -29 l-23 -6 5 -177 c3 -97 9 -406
15 -687 6 -280 16 -566 22 -635 8 -90 9 -217 2 -450 l-9 -325 28 -37 28 -37
-28 -15 c-27 -14 -29 -19 -35 -98 -4 -46 -7 -115 -7 -154 l0 -71 107 -7 c88
-6 115 -11 150 -31 23 -14 46 -25 51 -25 14 0 193 366 256 523 55 139 257 577
266 577 3 0 14 -23 24 -51 10 -29 51 -122 91 -208 40 -86 109 -237 155 -336
86 -188 210 -437 232 -468 12 -16 16 -16 58 -3 25 9 96 20 158 25 63 5 115 11
116 13 2 1 -3 66 -10 143 -7 77 -14 223 -14 325 -2 294 -23 620 -42 654 -15
28 -14 31 5 46 19 16 20 33 30 528 10 482 10 514 -7 549 l-18 37 26 21 26 21
0 192 0 192 -45 0 c-25 0 -45 5 -45 10 0 6 -42 10 -105 10 l-105 0 -74 -147
c-144 -288 -227 -476 -224 -504 2 -22 -7 -39 -38 -71 -25 -25 -73 -104 -119
-191 l-77 -149 -70 124 c-38 67 -87 159 -108 204 -20 44 -45 84 -55 88 -13 5
-16 13 -11 37 6 33 4 38 -192 399 -112 206 -121 220 -136 219 -6 0 -60 -11
-121 -25z m462 -1220 c22 -32 47 -78 56 -101 l16 -42 -79 -163 c-80 -166 -163
-348 -227 -496 -20 -45 -38 -81 -40 -78 -2 2 1 174 8 382 10 339 10 394 -5
527 -15 133 -16 149 -2 169 13 18 16 53 16 167 l0 145 108 -225 c60 -124 127
-252 149 -285z m723 106 c-5 -323 -5 -433 2 -690 l7 -265 -23 55 c-12 30 -89
186 -169 347 -81 161 -147 299 -147 308 0 20 79 177 134 265 23 38 74 138 112
222 l69 153 8 -120 c5 -66 8 -190 7 -275z"/>
<path d="M11940 2854 c-14 -2 -78 -6 -142 -10 l-117 -6 -7 -35 c-4 -20 -1
-119 7 -222 10 -140 12 -418 10 -1133 l-3 -946 23 -32 23 -31 -27 -49 c-20
-35 -31 -73 -37 -132 -15 -128 -17 -122 43 -146 61 -25 148 -29 270 -10 l77
11 0 109 c0 60 -7 189 -16 286 -13 146 -19 181 -36 202 l-20 25 21 3 c20 3 21
6 21 425 0 485 -11 637 -47 711 l-25 49 33 30 32 31 -7 184 -6 184 67 -58 c38
-33 106 -105 153 -161 47 -56 90 -102 97 -103 65 -2 192 120 219 211 9 30 12
54 6 58 -5 3 -79 66 -165 139 -117 100 -186 169 -278 278 -66 79 -126 143
-133 143 -6 -1 -22 -3 -36 -5z"/>
<path d="M12897 2842 l-88 -3 5 -44 c4 -25 9 -66 12 -92 3 -27 12 -55 20 -64
12 -13 12 -21 2 -46 -19 -43 -8 -769 12 -831 11 -36 11 -72 2 -215 -7 -95 -12
-354 -12 -575 0 -399 0 -404 22 -435 l22 -30 -22 -38 c-14 -25 -30 -88 -47
-194 -14 -86 -25 -160 -25 -164 0 -5 55 -11 123 -13 110 -5 130 -3 203 20 l81
25 5 66 c3 36 1 93 -3 126 -4 33 -8 296 -8 585 -1 510 -2 526 -21 537 -18 12
-18 14 -3 50 14 33 14 54 5 163 -8 85 -8 187 -2 320 5 107 9 256 10 330 0 74
5 153 10 175 11 47 33 325 26 332 -7 8 -235 18 -329 15z"/>
<path d="M13751 2843 l-84 -4 6 -107 c22 -355 29 -620 30 -1133 l2 -577 40 -5
c22 -3 82 -9 133 -13 l93 -7 167 164 c146 144 396 359 416 359 4 0 6 -40 5
-89 -3 -83 -1 -91 24 -121 15 -17 27 -35 27 -39 0 -4 -13 -28 -30 -54 l-30
-48 0 -352 0 -353 29 -34 28 -34 -28 -46 c-24 -39 -59 -160 -59 -204 0 -24
143 -44 283 -38 l127 4 -5 97 c-3 53 -10 139 -16 191 -5 52 -10 431 -12 842
l-2 747 -25 5 c-37 8 -201 34 -231 38 -22 2 -47 -20 -169 -152 -78 -85 -166
-175 -194 -199 -59 -51 -233 -191 -238 -191 -2 0 -1 136 0 301 l4 302 -29 23
-28 22 28 29 27 29 0 216 c0 151 5 240 15 295 8 43 15 85 15 94 0 19 -127 50
-193 47 -23 -1 -80 -4 -126 -5z"/>
<path d="M15485 2842 c-16 -1 -53 -4 -80 -7 l-50 -6 6 -102 c4 -56 10 -256 14
-445 6 -315 8 -347 27 -390 l21 -46 -26 -22 -25 -22 5 -353 c5 -331 7 -355 25
-375 19 -21 19 -22 -6 -85 -23 -60 -25 -82 -35 -374 -6 -171 -11 -356 -11
-411 0 -97 1 -102 23 -108 29 -8 218 -8 296 0 l61 7 0 83 c0 45 -3 93 -7 106
-5 13 -6 63 -3 111 l5 89 59 -69 c32 -37 119 -135 194 -216 l135 -148 55 53
c57 56 172 200 172 216 0 5 -38 37 -85 71 -71 52 -88 60 -104 51 -27 -14 -26
-15 -40 31 -10 33 -51 82 -201 236 l-188 193 -7 123 c-10 193 0 1504 14 1661
6 76 10 140 9 142 -4 4 -219 9 -253 6z"/>
<path d="M315 1734 c-15 -19 -74 -81 -130 -137 -104 -103 -110 -112 -106 -179
1 -9 27 -38 59 -64 31 -25 92 -87 136 -136 l79 -90 46 6 c44 5 53 13 173 138
l127 133 1 52 c0 50 -2 53 -57 107 -44 42 -63 55 -80 51 -17 -4 -20 -1 -16 15
4 14 -10 38 -47 80 -51 59 -53 60 -105 60 -49 0 -55 -3 -80 -36z"/>
<path d="M7575 1743 c-10 -16 -69 -77 -132 -137 -96 -93 -113 -114 -113 -140
0 -56 11 -75 67 -117 30 -23 63 -50 72 -61 9 -11 43 -52 76 -90 l60 -70 49 6
c44 5 53 11 105 68 30 35 86 95 123 134 67 70 68 71 68 126 0 55 0 55 -59 106
-39 34 -65 50 -75 46 -12 -5 -16 0 -16 19 0 17 -18 45 -51 81 -50 54 -52 56
-104 56 -47 0 -55 -3 -70 -27z"/>
<path d="M16602 1730 c-15 -21 -33 -39 -39 -40 -7 0 -13 -4 -13 -9 0 -5 -40
-48 -89 -96 -49 -49 -92 -99 -96 -112 -10 -43 12 -86 65 -123 27 -19 84 -77
127 -128 l78 -92 50 4 c49 5 52 7 177 138 l127 133 1 51 c0 49 -2 53 -60 108
-47 45 -64 56 -81 51 -18 -6 -20 -4 -14 14 5 16 -6 35 -47 81 -52 59 -53 60
-105 60 -51 0 -55 -2 -81 -40z"/>
</g>
</svg>
